<?xml version="1.0" encoding="utf-8" ?><!-- created by svgstack.com | Attribution is required. --><svg xmlns="http://www.w3.org/2000/svg" xmlns:xlink="http://www.w3.org/1999/xlink" width="1024" height="1024"><path fill="#DFE7F5" transform="scale(2 2)" d="M418.569 302.363C440.509 300.746 444.06 328.594 424.689 333.42C404.929 337.083 397.063 308.081 418.569 302.363Z"/><path fill="#DFE7F5" transform="scale(2 2)" d="M315.243 391.367C335.884 390.459 340.172 419.353 318.709 423.268C297.566 423.608 294.921 395.135 315.243 391.367Z"/><path fill="#DFE7F5" transform="scale(2 2)" d="M360.968 350.854C383.651 348.616 386.529 378.828 366.12 382.695C345.066 384.076 339.774 356.707 360.968 350.854Z"/><path fill="#DFE7F5" transform="scale(2 2)" d="M164.265 73.6091C186.467 72.4831 189.083 103.007 169.163 105.802C144.624 106.94 144.979 75.6213 164.265 73.6091Z"/><path fill="#5B94E9" transform="scale(2 2)" d="M342.694 269.244L352.866 269.244L352.866 313.015C360.418 313.256 368.032 313.024 375.59 312.991C379.789 312.972 390.13 311.261 389.726 318.16C389.599 320.323 388.566 321.864 387.01 323.281C378.92 324.264 356.652 323.745 348.572 323.248C339.306 322.677 342.698 310.667 342.706 302.975L342.694 269.244Z"/><path fill="#5B94E9" transform="scale(2 2)" d="M264.014 440.724C264.265 436.368 264.029 431.875 264.025 427.501L264.004 400.667C263.991 371.442 266.162 378.517 284.807 357.382C304.292 335.293 309.036 312.59 309.213 283.748C309.248 278.138 307.049 268.933 314.54 267.563C315.711 268.053 316.761 268.603 317.854 269.244C319.735 271.107 319.804 273.067 319.815 275.593C319.994 316.019 315.478 341.663 286.943 370.221C278.338 378.833 274.166 380.198 274.161 393.233L274.194 427.945C274.198 432.652 274.697 439.181 274.111 443.706C273.335 449.691 264.194 449.496 264.014 440.724Z"/><path fill="#5B94E9" transform="scale(2 2)" d="M180.494 153.033L180.475 135.527C180.473 132.567 180.224 129.35 180.629 126.427C181.151 122.651 186.284 120.278 189.128 123.241C191.776 126.001 190.521 146.011 190.608 150.706C200.108 149.239 213.566 147.619 222.739 150.706L222.739 159.715C217.516 160.165 212.022 159.675 206.759 159.715C165.649 160.023 126.741 189.537 114.02 228.404C109.783 241.35 109.157 254.226 109.259 267.705C109.363 281.459 109.382 277.282 103.318 289.539L89.9845 316.695C88.3303 320.129 86.4774 323.469 84.989 326.981C88.645 327.019 92.3021 326.992 95.9582 326.981L109.246 326.981L109.256 367.003C109.248 385.003 105.316 399.188 128.255 399.024C151.88 398.976 164.282 401.209 164.27 428.336L164.265 440.724C164.533 446.011 160.443 450.908 156.331 447.073C148.752 440.007 161.481 414.953 145.368 409.91C137.847 407.557 125.917 410.78 116.935 408.503C96.749 403.388 98.7887 383.689 98.7845 367.936L98.7946 337.058C93.5068 337.068 77.1944 337.68 73.3363 336.632C65.8396 334.597 74.5939 323.01 76.8543 318.603L92.0479 288.753C101.007 270.881 98.3625 276.61 98.6102 255.656C99.1704 208.279 135.475 165.324 180.494 153.033Z"/><path fill="#ECB6B6" transform="scale(2 2)" d="M315.243 66.1051C321.294 61.5261 332.016 63.5592 339.769 63.5436C345.15 63.5327 354.955 61.5588 358.673 66.1051C359.714 73.883 359.322 82.0985 359.317 89.9354C365.268 92.012 370.723 94.4033 376.304 97.3111C400.257 78.1333 391.85 75.1902 414.839 97.124C417.033 99.2171 426.886 106.583 425.641 110.13C424.565 113.197 410.533 127.294 407.468 130.706C409.9 135.815 411.672 141.032 413.041 146.515C418.078 146.434 423.094 146.517 428.129 146.617C443.549 146.924 440.962 149.321 440.974 162.851C441.001 193.949 445.082 190.266 412.235 190.744C410.776 194.664 408.427 199.335 407.468 203.252C410.746 207.693 414.964 211.35 418.82 215.268C428.656 225.261 423.069 225.675 414.695 235.048C393.387 258.9 400.483 257.017 376.304 235.018C370.611 237.052 365.223 239.625 359.317 241.068L359.352 255.082C359.382 259.374 360.519 265.333 356.855 268.494C355.522 268.808 354.229 269.088 352.866 269.244L342.694 269.244C334.42 269.238 326.124 269.411 317.854 269.244C316.761 268.603 315.711 268.053 314.54 267.563C313.16 265.495 313.81 244.814 313.808 241.068C311.255 240.002 308.516 239.113 305.877 238.275C299.537 242.005 295.292 249.044 288.229 251.629C284.844 254.188 281.805 256.248 277.983 253.423C275.462 251.257 272.951 248.888 270.728 246.418C266.694 241.062 250.108 229.505 253.565 221.994C255.371 218.071 262.327 212.022 265.415 208.259C266.703 207.434 267.911 206.054 269.039 205C267.733 202.724 266.725 200.288 265.415 198.007C264.436 195.737 264.267 193.155 262.71 191.159C260.173 189.706 242.03 190.312 237.858 190.347C233.353 186.04 234.36 179.757 234.547 174.151C234.616 167.511 231.899 148.248 239.045 146.826C243.783 145.884 256.044 145.302 261.062 145.278C262.562 139.755 264.672 134.728 267.271 129.638C263.219 125.31 254.446 116.87 251.488 112.16C247.681 106.096 255.786 100.927 259.974 96.4954C280.688 74.5797 273.343 79.0796 297.643 97.3111C303.386 94.4598 309.204 92.0859 315.243 89.9354L315.222 74.1282C315.215 71.502 314.971 68.7104 315.243 66.1051ZM327.762 74.3543L326.358 74.444C325.025 76.1088 326.901 91.0963 325.415 95.0634C323.436 100.345 315.855 101.038 311.343 102.995C300.856 107.541 299.71 112.098 289.653 104.435C285.633 101.373 281.551 97.7556 277.086 95.3945L276.69 95.182C276.61 95.14 276.53 95.0999 276.45 95.0588C272.84 97.7451 265.437 105.694 262.832 109.435C264.966 110.925 278.954 125.971 279.221 127.752C279.81 131.685 273.928 140.127 272.725 145.363C271.93 148.829 272.018 154.507 267.763 155.449C261.654 156.8 252.457 156.308 245.734 157.204L245.734 180.241C253.135 180.242 261.787 179.541 269.039 180.241C273.508 183.509 273.804 190.922 276.157 195.675C278.496 200.403 283.633 204.5 279.615 209.652C275.331 215.144 269.005 219.294 265.415 225.338C267.309 228.259 278.955 240.045 281.863 242.151C285.803 238.624 289.222 234.403 292.823 230.526C301.173 221.536 301.238 224.931 311.193 228.529C323.577 233.005 324.911 229.749 324.915 243.994L324.895 258.113L345.495 258.113L349.001 258.113L348.973 241.568C348.961 238.977 348.711 236.185 349.001 233.619C353.435 230.931 358.892 230.42 363.706 228.49C367.994 226.77 372.02 224.252 376.304 222.647C382.028 224.284 391.489 235.408 396.741 239.497C401.099 233.399 406.793 228.456 411.481 222.647C407.536 218.61 400.407 212.477 397.543 207.968C393.987 202.37 397.484 198.098 399.712 192.918C401.774 188.123 402.497 181.859 408.393 180.444C413.71 179.168 424.653 179.645 430.463 179.754C430.247 172.255 430.471 164.709 430.463 157.204C424.791 157.218 413.981 157.853 409.024 156.68C402.111 155.045 402.66 147.514 400.745 142.021C399.409 138.192 396.044 133.528 396.207 129.461C396.421 124.111 408.659 114.142 412.235 109.435C408.283 106.356 400.324 99.0112 396.741 95.0588C390.747 98.2184 383.846 106.363 379.135 108.206C374.185 110.142 369.13 105.031 364.868 103.179C360.48 101.273 351.421 100.467 349.189 95.5939C347.769 92.4943 348.522 78.4766 348.507 74.3543L327.762 74.3543Z"/><path fill="#5B94E9" transform="scale(2 2)" d="M302.496 236.452L305.877 238.275C299.537 242.005 295.292 249.044 288.229 251.629C292.639 246.33 297.786 241.497 302.496 236.452Z"/><path fill="#5B94E9" transform="scale(2 2)" d="M333.69 113.15L333.922 113.13C362.335 110.863 387.67 133.566 389.729 161.747C391.908 191.562 370.708 216.397 340.765 218.486C310.487 218.753 287.466 199.927 285.04 169.118C282.772 140.304 305.143 115.331 333.69 113.15Z"/><path fill="#A8CFF0" transform="scale(2 2)" d="M334.676 124.107C344.197 123.056 354.744 126.735 362.27 132.449C392.105 155.098 379.876 202.799 340.765 207.471C329.888 208.179 319.493 205.599 311.018 198.519C281.68 174.009 297.404 126.973 334.676 124.107Z"/><path fill="#5B94E9" transform="scale(2 2)" d="M335.893 145.736C360.532 143.786 365.486 182.257 339.062 184.735C314.584 187.555 307.448 149.73 335.893 145.736Z"/><path fill="#A8CFF0" transform="scale(2 2)" d="M95.9582 326.981L97.0947 326.666C99.91 323.48 114.825 292.049 118.448 283.983C121.377 277.462 119.762 262.831 120.094 255.239C122.321 204.327 168.711 165.851 218.648 170.502C224.083 171.008 225.663 173.772 234.547 174.151C234.36 179.757 233.353 186.04 237.858 190.347C242.03 190.312 260.173 189.706 262.71 191.159C264.267 193.155 264.436 195.737 265.415 198.007C266.725 200.288 267.733 202.724 269.039 205C267.911 206.054 266.703 207.434 265.415 208.259C262.327 212.022 255.371 218.071 253.565 221.994C250.108 229.505 266.694 241.062 270.728 246.418C272.951 248.888 275.462 251.257 277.983 253.423C281.805 256.248 284.844 254.188 288.229 251.629C295.292 249.044 299.537 242.005 305.877 238.275C308.516 239.113 311.255 240.002 313.808 241.068C313.81 244.814 313.16 265.495 314.54 267.563C307.049 268.933 309.248 278.138 309.213 283.748C309.036 312.59 304.292 335.293 284.807 357.382C266.162 378.517 263.991 371.442 264.004 400.667L264.025 427.501C264.029 431.875 264.265 436.368 264.014 440.724C255.065 441.336 245.954 440.141 236.995 440.724C235.854 452.393 226.295 449.576 226.682 440.724C221.765 440.634 204.766 439.856 200.634 440.573C200.467 441.26 200.339 441.915 200.248 442.616C200.05 450.341 189.954 450.144 190.001 440.724C181.452 440.466 172.822 440.713 164.265 440.724L164.27 428.336C164.282 401.209 151.88 398.976 128.255 399.024C105.316 399.188 109.248 385.003 109.256 367.003L109.246 326.981L95.9582 326.981ZM194.094 208.259L241.785 208.263C249.624 208.264 257.59 208.581 265.415 208.259C266.703 207.434 267.911 206.054 269.039 205C267.733 202.724 266.725 200.288 265.415 198.007C257.634 198.261 249.782 198.006 241.991 198.005L195.124 198.007C190.61 182.387 171.736 180.364 164.731 193.324C154.349 212.53 183.534 229.421 194.094 208.259ZM109.246 326.981L109.256 367.003C109.248 385.003 105.316 399.188 128.255 399.024L128.368 398.817C127.854 397.431 124.383 395.275 123.275 393.65C117.99 385.909 120.008 375.794 120.01 366.904L120.004 326.981C116.465 326.74 112.797 326.951 109.246 326.981Z"/><path fill="#5B94E9" transform="scale(2 2)" d="M190.001 380.99C191.109 379.293 192.328 378.164 194.359 377.722C201.103 376.256 200.273 384.761 200.273 388.824L200.267 400.421C200.253 414.481 200.07 428.559 200.248 442.616C200.05 450.341 189.954 450.144 190.001 440.724L189.997 398.881C189.992 393.392 189.358 386.31 190.001 380.99Z"/><path fill="#5B94E9" transform="scale(2 2)" d="M226.682 440.724L226.677 401.909C226.677 397.233 225.173 381.639 228.422 378.372C231.485 375.291 236.38 377.987 236.839 381.858C237.49 387.342 237.012 395.385 237.009 401.183L236.995 440.724C235.854 452.393 226.295 449.576 226.682 440.724Z"/><path fill="#5B94E9" transform="scale(2 2)" d="M243.902 215.545C257.655 216.206 242.094 230.045 239.439 232.774L224.8 247.605C221.688 250.713 216.681 256.45 213.276 258.725C208.772 259.218 204.102 258.76 199.571 258.741L171.937 258.725C171 258.626 170.076 258.344 169.163 258.113C165.445 255.047 165.454 249.512 170.987 248.665C180.389 247.225 198.873 248.546 209.038 248.438C211.466 246.727 213.564 244.139 215.648 242.016L232.298 225.297C235.566 222.029 239.178 216.695 243.902 215.545Z"/><path fill="#5B94E9" transform="scale(2 2)" d="M194.094 208.259C183.534 229.421 154.349 212.53 164.731 193.324C171.736 180.364 190.61 182.387 195.124 198.007L241.991 198.005C249.782 198.006 257.634 198.261 265.415 198.007C266.725 200.288 267.733 202.724 269.039 205C267.911 206.054 266.703 207.434 265.415 208.259C257.59 208.581 249.624 208.264 241.785 208.263L194.094 208.259ZM177.822 195.271C174.892 196.514 173.685 198.206 172.892 201.146C173.948 205.203 176.04 207.939 180.494 207.471C186.976 203.612 186.42 194.837 177.822 195.271Z"/><path fill="#5B94E9" transform="scale(2 2)" d="M270.728 246.418C272.951 248.888 275.462 251.257 277.983 253.423L235.619 296.151C234.594 297.164 233.065 298.797 231.736 299.356C229.379 300.346 199.285 299.761 194.094 299.755C187.365 311.496 172.648 313.963 165.067 302.352C155.155 287.173 178.659 262.984 195.124 289.503L227.786 289.503C242.116 275.148 256.143 260.523 270.728 246.418Z"/><path fill="#DFE7F5" transform="scale(2 2)" d="M177.822 288.031C185.671 287.709 186.392 296.381 180.494 299.755C172.987 299.677 169.996 290.876 177.822 288.031Z"/><path fill="#5B94E9" transform="scale(2 2)" d="M290.28 292.757C300.692 292.97 295.947 300.824 291.595 305.216L254.523 343.092C249.099 348.569 241.228 346.26 233.473 346.261L194.094 346.248C191.797 359.88 174.363 362.691 166.174 352.764C152.136 332.069 183.075 316.308 193.266 336.093L246.522 336.093L275.242 307.184C278.8 303.563 285.899 294.509 290.28 292.757Z"/><path fill="#DFE7F5" transform="scale(2 2)" d="M177.822 337.058C185.248 337.071 187.02 345.643 180.494 348.431C172.207 349.187 170.55 340.435 177.822 337.058Z"/></svg> 