<svg viewBox="0 0 512 512" xmlns="http://www.w3.org/2000/svg" fill-rule="evenodd" clip-rule="evenodd" stroke-linejoin="round" stroke-miterlimit="2"><path d="M58.405 167.71c-6.285-14.265-21.825-20.73-36.33-14.055-14.52 6.675-19.86 23.34-13.305 37.62L69.685 328.27c9.57 21.48 19.665 32.73 38.61 32.73 20.25 0 29.07-12.255 38.64-32.73 0 0 53.115-119.7 53.655-120.945.54-1.275 2.25-5.145 7.65-5.1 4.575.015 8.415 3.795 8.415 8.865v117.06c0 18.045 9.675 32.85 28.275 32.85 18.6 0 28.65-14.805 28.65-32.85v-95.79c0-18.48 12.78-30.465 30.225-30.465 17.43 0 29.04 12.42 29.04 30.465v95.79c0 18.045 9.705 32.85 28.275 32.85 18.585 0 28.695-14.805 28.695-32.85v-95.79c0-18.48 12.735-30.465 30.18-30.465 17.4 0 29.055 12.42 29.055 30.465v95.79c0 18.045 9.69 32.85 28.29 32.85 18.57 0 28.665-14.805 28.665-32.85V219.13c0-40.065-31.14-68.13-68.61-68.13-37.41 0-60.855 26.79-60.855 26.79-12.45-16.71-29.625-26.745-58.68-26.745-30.66 0-57.495 26.745-57.495 26.745-12.465-16.71-33.675-26.745-51.255-26.745-27.165 0-48.75 12.36-61.92 43.515l-38.895 94.875-49.89-121.725z" fill="#696566" fill-rule="nonzero"/></svg>